<svg id="Layer_1" data-name="Layer 1" xmlns="http://www.w3.org/2000/svg" viewBox="0 0 95.16 235.28">
  <defs>
    <style>.cls-1{fill:none;}.cls-2{fill:#fff;}</style>
  </defs>
<title>water-bottle</title>
<path class="cls-1" d="M140.79,133.08q0,10.59,0,21.18v0Q140.78,143.67,140.79,133.08Z" transform="translate(-124.07 -20.2)"/>
<path d="M219.22,90.85c0-1.06,0-2.11-.05-3.16a28.45,28.45,0,0,0-21.24-26.13c-1.34-.34-2.69-.6-4.17-.92V53.9c0-5.85-.14-6-5.85-7.54V43.54c0-6.23,0-12.46,0-18.69,0-3.14-1.45-4.6-4.46-4.61q-11.85-.07-23.69,0c-2.76,0-4.21,1.48-4.27,4.24-.08,3.07,0,6.14,0,9.21V46.46c-5.51,1.08-5.81,1.46-5.81,7v7c-.45.17-.69.29-.93.35-16.48,3.74-24.62,13.93-24.62,30.81V249.11c0,5.3,1,6.37,6.27,6.37H213c5.11,0,6.21-1.1,6.21-6.15Zm-78.44,63.41q0-10.59,0-21.18t0-21.17c0-2,.28-3.69,2.17-4.71a3.94,3.94,0,0,1,5.8,2.89,13.37,13.37,0,0,1,.08,2.1v84.19a14.69,14.69,0,0,1-.07,2.1,3.69,3.69,0,0,1-3.69,3.44,3.8,3.8,0,0,1-4.18-3.21,11.39,11.39,0,0,1-.1-2.62Zm30.73-127a9.14,9.14,0,1,1-9,9.11A9.23,9.23,0,0,1,171.51,27.28ZM157.74,55.14h27.71v5.37H157.74Z" transform="translate(-124.07 -20.2)"/>
<path class="cls-2" d="M171.67,45.56a9.14,9.14,0,1,0-.16-18.28,9.3,9.3,0,0,0-9,9.11A9.19,9.19,0,0,0,171.67,45.56Z" transform="translate(-124.07 -20.2)"/><path class="cls-2" d="M185.45,55.14H157.74v5.37h27.71Z" transform="translate(-124.07 -20.2)"/>
<path class="cls-2" d="M140.88,198.71a3.8,3.8,0,0,0,4.18,3.21,3.69,3.69,0,0,0,3.69-3.44,14.69,14.69,0,0,0,.07-2.1V112.19a13.37,13.37,0,0,0-.08-2.1,3.94,3.94,0,0,0-5.8-2.89c-1.89,1-2.18,2.75-2.17,4.71q0,10.59,0,21.17t0,21.18v41.83A11.39,11.39,0,0,0,140.88,198.71Z" transform="translate(-124.07 -20.2)"/>
</svg>
